<?xml version="1.0" standalone="no"?>
<!DOCTYPE svg PUBLIC "-//W3C//DTD SVG 20010904//EN"
 "http://www.w3.org/TR/2001/REC-SVG-20010904/DTD/svg10.dtd">
<svg version="1.0" xmlns="http://www.w3.org/2000/svg"
 width="270.000000pt" height="270.000000pt" viewBox="0 0 270.000000 270.000000"
 preserveAspectRatio="xMidYMid meet">
<metadata>
Created by potrace 1.14, written by Peter Selinger 2001-2017
</metadata>
<g transform="translate(0.000000,270.000000) scale(0.100000,-0.100000)"
fill="#000000" stroke="none">
<path d="M1230 2655 c-8 -2 -48 -9 -89 -15 -41 -7 -98 -21 -125 -31 -28 -11
-40 -17 -26 -14 14 4 59 10 100 16 41 5 95 13 120 19 79 16 239 12 322 -9 81
-21 194 -74 260 -122 23 -16 49 -29 58 -29 10 0 29 -9 43 -20 14 -11 34 -20
45 -20 23 0 142 -77 142 -92 0 -5 -16 0 -36 11 -43 25 -60 18 -24 -9 l25 -20
-42 0 c-47 0 -51 -8 -27 -44 10 -16 32 -28 65 -36 27 -7 52 -16 55 -21 9 -15
54 -11 48 5 -3 8 -1 17 5 20 6 4 8 20 5 35 -5 23 -2 30 12 33 13 2 -1 19 -58
68 -170 146 -384 241 -609 270 -68 9 -234 12 -269 5z"/>
<path d="M1213 2454 c-3 -8 -1 -20 6 -27 6 -6 11 -43 11 -84 0 -72 1 -75 40
-116 38 -42 39 -46 43 -123 l3 -79 2 86 2 85 -35 34 c-34 33 -35 36 -35 110 0
43 5 81 11 87 17 17 3 43 -21 43 -11 0 -23 -7 -27 -16z m37 -9 c0 -8 -4 -15
-9 -15 -13 0 -22 16 -14 24 11 11 23 6 23 -9z"/>
<path d="M1433 2454 c-3 -8 -1 -20 6 -27 6 -6 11 -44 11 -87 0 -74 -1 -77 -35
-110 l-35 -34 2 -85 2 -86 3 79 c4 77 5 81 43 123 39 41 40 44 40 116 0 41 5
78 11 84 17 17 3 43 -21 43 -11 0 -23 -7 -27 -16z m39 -9 c0 -5 -5 -11 -11
-13 -6 -2 -11 4 -11 13 0 9 5 15 11 13 6 -2 11 -8 11 -13z"/>
<path d="M1129 2404 c-10 -12 -10 -20 -1 -35 7 -10 12 -35 12 -56 0 -29 8 -45
38 -76 36 -36 37 -41 43 -125 l6 -87 1 87 c2 87 2 88 -33 127 -38 41 -47 93
-23 130 9 15 9 23 -1 35 -8 9 -17 16 -21 16 -4 0 -13 -7 -21 -16z m33 -19 c0
-5 -5 -11 -11 -13 -6 -2 -11 4 -11 13 0 9 5 15 11 13 6 -2 11 -8 11 -13z"/>
<path d="M1529 2404 c-10 -12 -10 -20 -1 -35 7 -10 12 -36 12 -57 0 -30 -7
-45 -35 -72 l-35 -34 2 -90 1 -91 6 87 c6 84 7 89 44 125 29 31 37 47 37 76 0
21 5 46 12 56 9 15 9 23 -1 35 -8 9 -17 16 -21 16 -4 0 -13 -7 -21 -16z m31
-19 c0 -8 -4 -15 -10 -15 -5 0 -10 7 -10 15 0 8 5 15 10 15 6 0 10 -7 10 -15z"/>
<path d="M950 2341 c-7 -15 -6 -23 5 -35 10 -9 15 -34 15 -73 0 -54 3 -62 34
-93 26 -25 36 -43 39 -74 l4 -41 1 46 c2 40 -2 49 -33 79 -32 31 -35 39 -35
91 0 32 5 61 10 64 16 10 12 42 -6 49 -22 8 -22 8 -34 -13z m38 -13 c-6 -18
-28 -21 -28 -4 0 9 7 16 16 16 9 0 14 -5 12 -12z"/>
<path d="M1713 2353 c-15 -6 -17 -39 -3 -48 6 -3 10 -32 10 -64 0 -52 -3 -60
-35 -91 -31 -30 -35 -39 -33 -79 l1 -46 4 41 c3 31 13 49 39 74 31 31 34 39
34 89 1 33 7 64 15 75 10 13 11 24 4 37 -10 19 -15 21 -36 12z m25 -24 c-2 -6
-8 -10 -13 -10 -5 0 -11 4 -13 10 -2 6 4 11 13 11 9 0 15 -5 13 -11z"/>
<path d="M863 2314 c-3 -9 -1 -25 5 -35 7 -10 12 -38 12 -62 0 -36 6 -49 35
-77 28 -27 35 -42 35 -73 0 -23 4 -36 10 -32 24 15 10 66 -30 109 -33 36 -40
50 -40 84 0 22 5 44 10 47 16 10 12 42 -6 49 -22 9 -24 8 -31 -10z m35 -15
c-2 -6 -8 -10 -13 -10 -5 0 -11 4 -13 10 -2 6 4 11 13 11 9 0 15 -5 13 -11z"/>
<path d="M1041 2316 c-9 -11 -9 -20 -2 -35 6 -11 11 -36 11 -56 0 -27 9 -45
39 -78 29 -31 41 -53 44 -82 l4 -40 1 46 c2 40 -2 49 -33 79 -28 27 -35 42
-35 72 0 21 5 47 12 57 9 15 9 23 -1 35 -17 20 -25 20 -40 2z m31 -21 c0 -5
-5 -11 -11 -13 -6 -2 -11 4 -11 13 0 9 5 15 11 13 6 -2 11 -8 11 -13z"/>
<path d="M1619 2314 c-10 -12 -10 -20 -1 -35 7 -10 12 -36 12 -57 0 -30 -7
-45 -35 -72 -31 -30 -35 -39 -33 -79 l1 -46 4 41 c3 32 13 49 43 79 33 32 40
46 40 78 0 21 5 47 11 58 7 15 7 24 -2 35 -15 18 -23 18 -40 -2z m31 -19 c0
-8 -4 -15 -9 -15 -13 0 -22 16 -14 24 11 11 23 6 23 -9z"/>
<path d="M1803 2323 c-15 -6 -17 -39 -3 -48 6 -3 10 -25 10 -49 0 -36 -6 -48
-40 -81 -33 -32 -40 -46 -40 -77 0 -21 5 -38 10 -38 6 0 10 17 10 38 0 30 7
45 35 72 29 28 35 41 35 77 0 24 5 52 12 62 6 10 8 26 5 35 -7 16 -13 18 -34
9z m25 -24 c-2 -6 -8 -10 -13 -10 -5 0 -11 4 -13 10 -2 6 4 11 13 11 9 0 15
-5 13 -11z"/>
<path d="M2170 2171 l-55 -6 35 -9 c49 -13 63 -14 77 -4 7 5 14 4 19 -3 4 -6
0 -16 -10 -21 -24 -13 -19 -37 9 -44 14 -3 33 -19 42 -35 29 -49 44 -35 22 21
-21 56 -11 65 21 21 38 -54 61 -148 60 -241 -2 -108 2 -138 34 -230 20 -58 25
-66 21 -35 l-5 40 16 -35 c16 -35 20 -103 12 -237 -3 -44 1 -70 13 -93 l17
-31 10 48 c30 138 22 354 -18 508 -37 141 -190 422 -207 378 -4 -10 -10 -10
-26 2 -12 8 -24 14 -27 13 -3 -1 -30 -4 -60 -7z"/>
<path d="M1510 2155 c-7 -9 -8 -15 -2 -15 5 0 12 7 16 15 3 8 4 15 2 15 -2 0
-9 -7 -16 -15z"/>
<path d="M2018 2135 l4 -35 -49 0 c-27 0 -55 -6 -62 -12 -11 -10 -14 -10 -18
0 -3 8 -26 12 -64 12 -71 0 -77 -8 -60 -83 7 -29 12 -61 12 -72 0 -13 2 -16 8
-7 5 9 11 9 27 -3 10 -8 30 -15 43 -15 16 0 21 -4 17 -15 -4 -12 3 -15 37 -15
36 0 49 6 77 35 19 19 37 35 42 35 4 0 -11 -17 -35 -39 -36 -33 -50 -39 -103
-44 -33 -4 -68 -9 -78 -13 -15 -6 -15 -7 1 -20 10 -7 29 -14 42 -14 16 0 21
-4 17 -15 -4 -12 3 -15 37 -15 37 0 48 6 82 40 35 36 44 40 89 40 32 0 56 -6
68 -17 17 -15 20 -15 35 -1 9 9 13 24 10 32 -7 18 -42 22 -52 6 -3 -5 -32 -10
-64 -10 -52 0 -60 -3 -91 -35 -19 -19 -40 -35 -47 -35 -7 0 7 18 31 40 41 38
47 40 104 40 33 0 64 5 68 11 3 6 19 9 35 5 32 -6 34 -2 14 34 -11 21 -15 22
-20 8 -4 -9 -13 -19 -21 -22 -17 -6 -59 12 -50 21 3 3 13 0 21 -7 13 -11 19
-11 32 3 9 8 13 23 10 31 -7 18 -42 22 -52 6 -3 -5 -25 -10 -49 -10 -35 0 -48
-6 -76 -35 -19 -19 -38 -35 -44 -35 -6 0 8 18 29 40 34 35 45 40 85 40 25 0
50 4 56 9 5 5 18 11 29 13 17 3 11 12 -36 59 -31 31 -60 66 -63 77 -12 37 -33
27 -28 -13z m-188 -86 c0 -5 -7 -9 -15 -9 -15 0 -20 12 -9 23 8 8 24 -1 24
-14z m250 -9 c0 -5 -4 -10 -10 -10 -5 0 -10 5 -10 10 0 6 5 10 10 10 6 0 10
-4 10 -10z m70 -70 c0 -5 -4 -10 -10 -10 -5 0 -10 5 -10 10 0 6 5 10 10 10 6
0 10 -4 10 -10z m30 -85 c0 -8 -4 -15 -10 -15 -5 0 -10 7 -10 15 0 8 5 15 10
15 6 0 10 -7 10 -15z"/>
<path d="M1335 2140 c3 -5 12 -7 20 -3 21 7 19 13 -6 13 -11 0 -18 -4 -14 -10z"/>
<path d="M1260 2122 c-22 -25 -15 -134 8 -130 13 2 18 16 20 51 2 29 -1 47 -8
47 -7 0 -8 6 0 19 18 35 7 42 -20 13z"/>
<path d="M1070 2104 c0 -8 5 -12 10 -9 6 3 10 10 10 16 0 5 -4 9 -10 9 -5 0
-10 -7 -10 -16z"/>
<path d="M1504 2086 c-12 -13 -4 -99 10 -113 13 -14 26 22 26 75 0 53 -12 66
-36 38z"/>
<path d="M1600 2090 c-15 -9 -17 -71 -4 -112 6 -21 7 -21 20 -3 14 19 20 125
7 125 -5 0 -15 -4 -23 -10z"/>
<path d="M1675 2090 c-6 -10 0 -74 12 -114 5 -19 6 -19 16 0 6 10 12 43 14 72
2 45 0 52 -17 52 -10 0 -22 -5 -25 -10z"/>
<path d="M1010 2080 c0 -5 5 -10 10 -10 6 0 10 5 10 10 0 6 -4 10 -10 10 -5 0
-10 -4 -10 -10z"/>
<path d="M1086 2081 c-3 -5 0 -11 8 -14 15 -6 26 1 26 15 0 11 -27 10 -34 -1z"/>
<path d="M1337 2070 c-3 -11 -2 -33 3 -48 l7 -27 11 26 c11 27 6 69 -8 69 -4
0 -10 -9 -13 -20z"/>
<path d="M287 1978 c-148 -296 -153 -666 -15 -970 17 -38 35 -68 39 -68 5 0
19 -19 31 -42 l23 -43 3 32 c3 29 5 31 22 21 30 -19 36 0 7 26 -25 23 -44 82
-34 108 2 8 13 -2 27 -24 23 -39 40 -42 40 -7 0 10 5 19 11 19 6 0 9 -15 7
-37 -1 -21 2 -38 9 -40 17 -6 23 9 28 71 4 45 1 57 -13 66 -16 9 -16 11 1 20
21 13 23 60 3 60 -17 0 -39 60 -31 82 4 9 2 19 -4 23 -33 20 3 75 49 75 16 0
32 5 35 10 4 6 -11 10 -39 10 -25 0 -48 -4 -51 -10 -15 -25 -72 9 -61 36 3 7
1 16 -4 19 -13 8 -13 45 -1 45 5 0 11 -7 15 -15 3 -8 16 -15 30 -15 14 0 28
-4 31 -10 3 -5 32 -10 63 -10 49 0 63 4 95 31 33 27 36 33 25 52 -11 21 -12
21 -27 -13 l-16 -35 -2 45 c-7 105 -6 105 -72 108 -34 2 -62 -1 -66 -7 -7 -13
-52 -15 -59 -2 -3 4 5 6 18 4 13 -3 27 0 30 6 4 6 38 11 80 11 71 0 73 -1 111
-40 l39 -40 83 0 c49 0 83 4 83 10 0 6 -34 10 -83 10 -82 0 -84 1 -117 35 -33
34 -36 35 -111 35 -56 0 -80 4 -89 15 -8 9 -9 15 -2 15 6 0 14 -4 17 -10 3 -5
24 -10 46 -10 35 0 39 3 39 24 0 30 -16 42 -35 26 -8 -7 -25 -10 -36 -7 -15 4
-30 -2 -49 -21 -26 -27 -54 -88 -45 -101 6 -10 -17 -81 -26 -81 -10 0 -29 117
-29 183 0 31 -4 57 -9 57 -11 0 -6 72 14 190 19 114 26 170 22 170 -2 0 -25
-42 -50 -92z m135 -363 c0 -5 -5 -11 -11 -13 -6 -2 -11 4 -11 13 0 9 5 15 11
13 6 -2 11 -8 11 -13z m18 -459 c0 -3 -4 -8 -10 -11 -5 -3 -10 -1 -10 4 0 6 5
11 10 11 6 0 10 -2 10 -4z"/>
<path d="M1032 1985 c-11 -23 -9 -25 12 -25 19 0 23 4 19 20 -8 31 -19 32 -31
5z"/>
<path d="M1123 1993 c-3 -10 -8 -21 -10 -25 -2 -5 7 -8 20 -8 20 0 24 4 20 20
-8 28 -22 35 -30 13z"/>
<path d="M1213 1993 c-3 -10 -8 -21 -10 -25 -2 -5 7 -8 20 -8 20 0 24 4 20 20
-8 28 -22 35 -30 13z"/>
<path d="M1302 1990 c-10 -25 -3 -34 21 -28 10 2 11 8 0 28 l-12 24 -9 -24z"/>
<path d="M1373 1984 c-10 -22 -9 -24 12 -24 18 0 22 4 18 20 -8 30 -17 31 -30
4z"/>
<path d="M1463 1993 c-3 -10 -8 -21 -10 -25 -2 -5 7 -8 20 -8 20 0 24 4 20 20
-8 28 -22 35 -30 13z"/>
<path d="M1553 1993 c-3 -10 -8 -21 -10 -25 -2 -5 7 -8 20 -8 20 0 24 4 20 20
-8 28 -22 35 -30 13z"/>
<path d="M1642 1990 c-10 -26 -3 -34 22 -28 13 3 13 7 1 28 l-14 25 -9 -25z"/>
<path d="M533 1984 c-8 -23 23 -52 39 -36 7 7 33 12 58 12 40 0 51 -5 80 -35
30 -31 40 -35 79 -34 l46 2 -43 6 c-30 5 -54 18 -80 44 -31 31 -45 37 -79 37
-23 0 -45 5 -48 10 -10 16 -45 12 -52 -6z m37 -15 c0 -5 -4 -9 -10 -9 -5 0
-10 7 -10 16 0 8 5 12 10 9 6 -3 10 -10 10 -16z"/>
<path d="M946 1984 c-9 -23 -8 -24 14 -24 22 0 23 1 14 24 -8 20 -20 20 -28 0z"/>
<path d="M1726 1984 c-9 -23 -8 -24 14 -24 11 0 20 2 20 4 0 12 -13 36 -20 36
-4 0 -11 -7 -14 -16z"/>
<path d="M1175 1980 c-3 -5 -1 -10 4 -10 6 0 11 5 11 10 0 6 -2 10 -4 10 -3 0
-8 -4 -11 -10z"/>
<path d="M915 1938 c-3 -7 -3 -69 -1 -138 2 -69 5 -159 5 -200 1 -51 4 -70 11
-60 7 11 11 3 17 -30 6 -32 9 19 13 170 l5 215 350 5 c221 3 291 6 190 8 -88
2 -169 7 -180 12 -17 7 -17 9 -2 9 9 1 17 5 17 9 0 4 -95 9 -210 10 -164 2
-211 0 -215 -10z"/>
<path d="M1368 1943 c7 -3 16 -2 19 1 4 3 -2 6 -13 5 -11 0 -14 -3 -6 -6z"/>
<path d="M867 1913 c-22 -6 -17 -27 6 -31 12 -2 17 3 17 17 0 12 -1 20 -2 20
-2 -1 -11 -3 -21 -6z"/>
<path d="M1810 1898 c0 -13 6 -18 17 -16 24 5 27 25 3 31 -15 4 -20 0 -20 -15z"/>
<path d="M503 1894 c-3 -8 1 -23 10 -32 15 -14 18 -14 35 1 12 11 36 17 68 17
45 0 54 -4 89 -40 35 -36 44 -40 85 -39 l45 2 -43 6 c-30 5 -54 18 -80 44 -35
34 -43 37 -94 37 -31 0 -60 5 -63 10 -10 16 -45 12 -52 -6z m37 -9 c0 -8 -4
-15 -10 -15 -5 0 -10 7 -10 15 0 8 5 15 10 15 6 0 10 -7 10 -15z"/>
<path d="M1995 1830 c-24 -24 -48 -40 -62 -40 l-24 0 21 -22 20 -22 33 32 c27
27 41 32 79 32 26 0 50 5 53 10 3 6 17 10 30 10 18 0 26 -7 31 -24 3 -14 3
-30 -1 -35 -8 -14 -52 -14 -60 -1 -3 6 -23 10 -44 10 -29 0 -43 -7 -67 -32
-26 -30 -30 -43 -25 -85 3 -27 57 -14 91 22 29 30 41 35 80 35 56 0 68 16 62
83 -4 44 -6 48 -26 43 -13 -3 -31 1 -42 9 -10 8 -39 15 -64 15 -41 0 -51 -5
-85 -40z"/>
<path d="M868 1823 c-24 -6 -23 -19 2 -26 15 -4 20 0 20 14 0 10 -1 18 -2 18
-2 -1 -11 -3 -20 -6z"/>
<path d="M1810 1810 c0 -13 5 -17 20 -13 11 3 20 9 20 13 0 4 -9 10 -20 13
-15 4 -20 0 -20 -13z"/>
<path d="M534 1805 c-3 -8 -3 -19 1 -25 8 -13 42 -13 50 0 3 6 23 10 44 10 30
0 44 -7 76 -40 34 -34 45 -40 82 -40 24 0 43 5 43 10 0 6 -19 10 -43 10 -36 0
-49 6 -77 35 -28 29 -41 35 -76 35 -24 0 -46 5 -49 10 -9 15 -45 12 -51 -5z
m36 -10 c0 -8 -4 -15 -9 -15 -13 0 -22 16 -14 24 11 11 23 6 23 -9z"/>
<path d="M1215 1810 c3 -5 8 -10 11 -10 2 0 4 5 4 10 0 6 -5 10 -11 10 -5 0
-7 -4 -4 -10z"/>
<path d="M1272 1783 c-2 -39 0 -43 21 -43 13 0 28 -5 35 -12 10 -10 11 -1 6
37 -8 62 -14 70 -14 22 0 -30 -4 -37 -19 -37 -15 0 -21 8 -24 38 l-4 37 -1
-42z"/>
<path d="M1350 1780 c0 -22 3 -40 8 -40 4 0 6 18 4 40 -2 22 -6 40 -8 40 -2 0
-4 -18 -4 -40z"/>
<path d="M1398 1780 c-2 -24 1 -45 8 -51 9 -7 10 3 6 38 -6 61 -9 64 -14 13z"/>
<path d="M1431 1778 c1 -24 3 -36 6 -27 2 10 13 19 24 22 28 7 21 41 -9 45
-20 3 -22 -1 -21 -40z m39 17 c0 -8 -7 -15 -15 -15 -8 0 -15 7 -15 15 0 8 7
15 15 15 8 0 15 -7 15 -15z"/>
<path d="M2115 1811 c-3 -6 -25 -11 -49 -11 -35 0 -48 -6 -76 -35 -28 -29 -41
-35 -77 -35 -24 0 -43 -4 -43 -10 0 -5 19 -10 43 -10 37 0 48 6 82 40 41 42
85 53 124 28 24 -15 53 -3 49 19 -4 20 -43 30 -53 14z m35 -16 c0 -8 -4 -15
-10 -15 -5 0 -10 7 -10 15 0 8 5 15 10 15 6 0 10 -7 10 -15z"/>
<path d="M2320 1751 c-22 -42 -6 -121 24 -121 17 0 27 115 12 131 -15 14 -24
11 -36 -10z"/>
<path d="M868 1733 c-24 -6 -23 -19 2 -26 15 -4 20 0 20 14 0 10 -1 18 -2 18
-2 -1 -11 -3 -20 -6z"/>
<path d="M1810 1720 c0 -13 5 -17 20 -13 11 3 20 9 20 13 0 4 -9 10 -20 13
-15 4 -20 0 -20 -13z"/>
<path d="M444 1715 c-3 -8 -3 -19 1 -25 8 -13 42 -13 50 0 3 6 25 10 49 10 36
0 48 -6 81 -40 l39 -40 83 0 c49 0 83 4 83 10 0 6 -34 10 -83 10 -82 0 -84 1
-117 35 -29 30 -40 35 -81 35 -26 0 -51 5 -54 10 -9 15 -45 12 -51 -5z m38
-10 c0 -5 -5 -10 -11 -11 -8 -2 -7 -1 0 3 8 4 7 8 -2 15 -11 8 -11 9 -1 6 8
-2 14 -8 14 -13z"/>
<path d="M2205 1721 c-3 -6 -28 -11 -54 -11 -41 0 -52 -5 -81 -35 -33 -34 -35
-35 -117 -35 -49 0 -83 -4 -83 -10 0 -6 34 -10 83 -10 l84 0 41 40 c32 32 48
40 76 40 20 0 45 -5 55 -12 24 -15 53 -3 49 19 -4 20 -43 30 -53 14z m35 -16
c0 -8 -4 -15 -9 -15 -13 0 -22 16 -14 24 11 11 23 6 23 -9z"/>
<path d="M733 1675 l-28 -24 56 -1 c40 0 62 5 77 19 28 23 19 31 -34 31 -31 0
-50 -7 -71 -25z"/>
<path d="M1822 1681 c-17 -10 6 -21 45 -21 21 0 24 2 13 15 -14 17 -38 19 -58
6z"/>
<path d="M2082 1650 c-32 -32 -48 -40 -76 -40 -37 0 -48 -13 -20 -24 8 -3 12
-10 9 -16 -3 -6 4 -10 17 -10 14 0 38 14 57 34 35 36 87 53 148 47 36 -3 82
22 63 34 -7 4 -17 2 -23 -4 -16 -16 -42 -14 -57 4 -24 29 -73 18 -118 -25z"/>
<path d="M868 1643 c-24 -6 -23 -19 2 -26 15 -4 20 0 20 14 0 10 -1 18 -2 18
-2 -1 -11 -3 -20 -6z"/>
<path d="M1810 1630 c0 -13 5 -17 20 -13 11 3 20 9 20 13 0 4 -9 10 -20 13
-15 4 -20 0 -20 -13z"/>
<path d="M2270 1635 c-9 -11 -34 -15 -89 -15 -75 0 -78 -1 -111 -35 -33 -34
-35 -35 -117 -35 -49 0 -83 -4 -83 -10 0 -5 5 -10 11 -10 5 0 7 -5 4 -10 -4
-6 -2 -17 5 -25 9 -10 7 -16 -7 -24 -14 -8 3 -10 68 -11 84 0 86 0 119 -35 33
-34 36 -35 109 -35 56 0 79 -4 93 -17 17 -15 20 -15 34 -2 8 9 12 23 8 32 -7
19 -39 23 -49 7 -3 -5 -39 -10 -78 -10 -71 1 -73 1 -120 45 -49 45 -49 45 -20
45 37 1 113 70 113 104 0 18 -42 1 -81 -31 l-44 -37 40 42 c38 41 40 42 107
42 38 0 77 -5 87 -12 22 -13 51 -4 51 16 0 24 -35 39 -50 21z m30 -20 c0 -8
-4 -15 -9 -15 -13 0 -22 16 -14 24 11 11 23 6 23 -9z m-320 -125 c0 -5 -5 -10
-11 -10 -5 0 -7 5 -4 10 3 6 8 10 11 10 2 0 4 -4 4 -10z m320 -95 c0 -8 -4
-15 -9 -15 -13 0 -22 16 -14 24 11 11 23 6 23 -9z"/>
<path d="M728 1585 c4 -21 10 -25 38 -25 19 0 34 4 34 10 0 5 13 7 30 4 24 -5
30 -3 30 11 0 13 -6 16 -25 11 -14 -4 -25 -2 -25 4 0 5 -20 10 -44 10 -41 0
-43 -1 -38 -25z"/>
<path d="M1821 1594 c-25 -10 -25 -11 21 -22 26 -7 61 -12 78 -12 l31 0 -20
22 c-23 24 -69 29 -110 12z"/>
<path d="M1117 1594 c-3 -3 -2 -16 3 -29 5 -14 5 -26 -3 -34 -8 -8 -6 -11 9
-11 17 0 19 6 16 40 -4 38 -11 48 -25 34z"/>
<path d="M1189 1598 c-6 -21 -1 -78 6 -78 6 0 9 17 7 40 -3 33 -9 50 -13 38z"/>
<path d="M1237 1594 c-10 -10 -9 -62 1 -68 4 -2 6 11 4 30 -3 27 -1 34 13 34
14 0 16 -7 13 -35 -2 -20 0 -31 5 -26 14 14 4 66 -13 69 -9 1 -19 0 -23 -4z"/>
<path d="M1309 1598 c-6 -21 -1 -78 6 -78 6 0 9 17 7 40 -3 33 -9 50 -13 38z"/>
<path d="M1394 1576 c-3 -14 -1 -33 4 -43 9 -14 10 -12 9 16 -1 19 3 36 9 38
15 5 24 -30 12 -51 -5 -10 -5 -16 0 -16 13 0 21 35 15 60 -8 28 -41 25 -49 -4z"/>
<path d="M1479 1598 c-6 -21 -1 -78 6 -78 6 0 9 17 7 40 -3 33 -9 50 -13 38z"/>
<path d="M1539 1598 c-6 -21 -1 -78 6 -78 6 0 9 17 7 40 -3 33 -9 50 -13 38z"/>
<path d="M1587 1594 c-12 -12 -8 -61 6 -72 21 -18 39 2 35 39 -3 32 -24 49
-41 33z m31 -36 c-3 -34 -20 -42 -26 -13 -5 22 5 45 18 45 7 0 10 -14 8 -32z"/>
<path d="M868 1553 c-24 -6 -23 -19 2 -26 15 -4 20 0 20 14 0 10 -1 18 -2 18
-2 -1 -11 -3 -20 -6z"/>
<path d="M1810 1540 c0 -13 5 -17 20 -13 11 3 20 9 20 13 0 4 -9 10 -20 13
-15 4 -20 0 -20 -13z"/>
<path d="M1780 1481 c0 -57 -17 -78 -23 -29 -2 18 -5 -1 -5 -42 -1 -41 -5
-125 -9 -186 l-6 -112 -176 -8 c-97 -4 -165 -10 -151 -14 27 -8 17 -15 -30
-23 -14 -2 73 -5 193 -6 l217 -1 0 235 c0 129 -2 235 -5 235 -3 0 -5 -22 -5
-49z"/>
<path d="M748 1498 c-3 -20 -10 -23 -49 -26 -37 -2 -52 -10 -79 -37 -33 -34
-37 -35 -106 -35 -40 0 -76 5 -79 10 -10 16 -42 12 -49 -7 -4 -9 0 -23 8 -31
12 -13 17 -12 37 2 16 11 45 16 94 16 68 0 73 1 105 35 34 35 35 35 119 35 79
0 99 10 46 23 -15 4 -14 5 7 6 41 2 25 31 -17 31 -27 0 -34 -4 -37 -22z m-326
-103 c0 -5 -5 -11 -11 -13 -6 -2 -11 4 -11 13 0 9 5 15 11 13 6 -2 11 -8 11
-13z"/>
<path d="M867 1483 c-22 -6 -18 -25 6 -29 11 -1 17 5 17 17 0 10 -1 18 -2 18
-2 -1 -11 -3 -21 -6z"/>
<path d="M1810 1470 c0 -11 6 -17 17 -16 25 4 27 23 3 29 -15 4 -20 0 -20 -13z"/>
<path d="M1125 1429 c5 -22 3 -34 -6 -40 -11 -7 -9 -9 6 -9 18 0 20 5 17 40
-2 22 -8 40 -14 40 -6 0 -7 -13 -3 -31z"/>
<path d="M1189 1458 c-6 -21 -1 -78 6 -78 6 0 9 17 7 40 -3 33 -9 50 -13 38z"/>
<path d="M1234 1446 c-11 -28 0 -61 21 -61 16 0 20 7 20 35 0 25 -5 36 -18 38
-9 2 -20 -3 -23 -12z m36 -26 c0 -20 -5 -30 -15 -30 -10 0 -15 10 -15 30 0 20
5 30 15 30 10 0 15 -10 15 -30z"/>
<path d="M1311 1460 c-1 -3 -3 -22 -4 -43 -2 -31 1 -37 18 -37 13 0 16 3 8 8
-6 4 -13 23 -16 42 -2 19 -5 33 -6 30z"/>
<path d="M1395 1440 c-9 -29 3 -60 25 -60 9 0 20 9 23 20 8 31 -3 60 -23 60
-10 0 -22 -9 -25 -20z m35 -20 c0 -31 -16 -41 -26 -15 -8 19 2 45 16 45 5 0
10 -13 10 -30z"/>
<path d="M1479 1458 c-6 -21 -1 -78 6 -78 6 0 9 17 7 40 -3 33 -9 50 -13 38z"/>
<path d="M1541 1460 c-1 -3 -3 -22 -4 -43 -2 -31 1 -37 18 -37 13 0 16 3 8 8
-6 4 -13 23 -16 42 -2 19 -5 33 -6 30z"/>
<path d="M1587 1453 c-12 -11 -8 -60 6 -71 25 -21 43 8 39 61 -2 17 -32 24
-45 10z m33 -33 c0 -31 -16 -41 -26 -15 -8 19 2 45 16 45 5 0 10 -13 10 -30z"/>
<path d="M724 1439 c-3 -6 -20 -9 -38 -6 -25 4 -35 -1 -55 -25 -25 -31 -22
-51 4 -24 17 17 56 21 162 16 43 -1 69 3 84 13 21 15 21 16 -14 22 -20 4 -40
4 -46 0 -6 -3 -11 -1 -11 4 0 15 -77 14 -86 0z"/>
<path d="M1845 1441 c-39 -8 -38 -23 1 -36 17 -6 29 -15 27 -22 -4 -10 17 -13
79 -13 83 0 85 0 118 -35 28 -29 41 -35 77 -35 24 0 52 -5 62 -12 22 -14 51
-4 51 17 0 21 -29 31 -51 17 -10 -7 -36 -12 -57 -12 -31 0 -45 7 -77 40 -38
39 -41 40 -110 41 l-70 0 44 17 c67 26 65 42 -6 41 -32 -1 -71 -4 -88 -8z
m395 -136 c0 -8 -4 -15 -9 -15 -13 0 -22 16 -14 24 11 11 23 6 23 -9z"/>
<path d="M2006 1425 c4 -9 11 -14 16 -13 15 5 11 23 -6 26 -11 2 -14 -2 -10
-13z"/>
<path d="M868 1393 c-24 -6 -23 -19 2 -26 15 -4 20 0 20 14 0 10 -1 18 -2 18
-2 -1 -11 -3 -20 -6z"/>
<path d="M1810 1380 c0 -13 5 -17 20 -13 11 3 20 9 20 13 0 4 -9 10 -20 13
-15 4 -20 0 -20 -13z"/>
<path d="M625 1350 c-32 -33 -46 -40 -77 -40 -21 0 -47 5 -57 12 -22 14 -51 4
-51 -17 0 -21 29 -31 51 -17 10 7 38 12 62 12 36 0 49 6 77 35 33 34 35 35
117 35 49 0 83 4 83 10 0 6 -34 10 -83 10 l-83 0 -39 -40z m-143 -45 c0 -5 -5
-11 -11 -13 -6 -2 -11 4 -11 13 0 9 5 15 11 13 6 -2 11 -8 11 -13z"/>
<path d="M763 1349 c-27 -27 -15 -39 40 -39 59 1 115 23 81 33 -51 15 -110 18
-121 6z"/>
<path d="M1853 1353 c-27 -5 -31 -31 -7 -40 11 -4 22 1 30 12 15 21 18 36 7
34 -5 -1 -18 -4 -30 -6z"/>
<path d="M656 1320 c4 -14 7 -37 6 -52 -3 -35 2 -35 38 2 32 32 36 45 20 55
-5 3 -10 0 -10 -7 0 -8 -5 -19 -12 -26 -10 -10 -16 -5 -31 20 -14 26 -16 27
-11 8z"/>
<path d="M1189 1318 c-6 -21 -1 -78 6 -78 6 0 9 17 7 40 -3 33 -9 50 -13 38z"/>
<path d="M1237 1314 c-12 -12 -8 -61 6 -72 21 -18 39 2 35 39 -3 32 -24 49
-41 33z m31 -36 c-2 -18 -7 -33 -13 -33 -5 0 -11 15 -13 33 -3 24 1 32 13 32
12 0 16 -8 13 -32z"/>
<path d="M1309 1318 c-6 -21 -1 -78 6 -78 6 0 9 17 7 40 -3 33 -9 50 -13 38z"/>
<path d="M1396 1304 c-10 -27 -7 -51 10 -65 14 -11 18 -10 30 6 14 19 14 19
28 0 26 -36 58 12 40 59 -7 19 -40 21 -48 4 -5 -10 -7 -10 -12 0 -8 17 -41 15
-48 -4z m34 -23 c0 -17 -4 -33 -10 -36 -11 -7 -25 39 -15 54 12 21 25 11 25
-18z m64 14 c6 -18 -2 -45 -15 -45 -5 0 -9 14 -9 30 0 32 14 40 24 15z"/>
<path d="M1524 1306 c-3 -8 -4 -27 -2 -43 4 -36 37 -45 45 -12 l6 23 8 -22
c18 -47 66 -8 53 43 -7 29 -38 34 -52 9 -8 -15 -10 -15 -15 0 -8 20 -36 21
-43 2z m36 -26 c0 -20 -5 -30 -15 -30 -15 0 -21 40 -8 53 14 15 23 6 23 -23z
m60 0 c0 -16 -5 -30 -10 -30 -14 0 -24 26 -16 45 10 26 26 16 26 -15z"/>
<path d="M868 1303 c-24 -6 -23 -19 2 -26 15 -4 20 0 20 14 0 10 -1 18 -2 18
-2 -1 -11 -3 -20 -6z"/>
<path d="M1120 1295 c7 -8 10 -24 7 -35 -3 -11 -1 -20 4 -20 5 0 9 16 9 35 0
26 -4 35 -16 35 -13 0 -14 -3 -4 -15z"/>
<path d="M1810 1290 c0 -13 5 -17 20 -13 11 3 20 9 20 13 0 4 -9 10 -20 13
-15 4 -20 0 -20 -13z"/>
<path d="M715 1260 c-32 -33 -46 -40 -77 -40 -21 0 -47 5 -57 12 -22 14 -51 4
-51 -17 0 -21 29 -31 51 -17 10 7 38 12 62 12 36 0 49 6 77 35 27 28 42 35 72
35 21 0 38 5 38 10 0 6 -17 10 -38 10 -31 0 -45 -7 -77 -40z m-145 -45 c0 -8
-4 -15 -9 -15 -13 0 -22 16 -14 24 11 11 23 6 23 -9z"/>
<path d="M1870 1290 c0 -5 18 -10 40 -10 34 0 46 -6 71 -35 27 -30 37 -35 75
-35 24 0 53 -5 63 -12 22 -14 51 -4 51 17 0 21 -29 31 -51 17 -10 -7 -36 -12
-57 -12 -31 0 -45 7 -77 40 -32 33 -46 40 -77 40 -21 0 -38 -4 -38 -10z m282
-75 c0 -5 -5 -11 -11 -13 -6 -2 -11 4 -11 13 0 9 5 15 11 13 6 -2 11 -8 11
-13z"/>
<path d="M723 1234 c-38 -40 -37 -56 1 -30 14 9 33 16 43 16 10 0 23 11 30 25
10 23 9 25 -14 25 -16 0 -38 -13 -60 -36z"/>
<path d="M620 1250 c0 -5 5 -10 10 -10 6 0 10 5 10 10 0 6 -4 10 -10 10 -5 0
-10 -4 -10 -10z"/>
<path d="M868 1213 c-24 -6 -23 -19 2 -26 15 -4 20 0 20 14 0 10 -1 18 -2 18
-2 -1 -11 -3 -20 -6z"/>
<path d="M1810 1200 c0 -13 5 -17 20 -13 11 3 20 9 20 13 0 4 -9 10 -20 13
-15 4 -20 0 -20 -13z"/>
<path d="M706 1170 c-38 -35 -49 -40 -90 -40 -25 0 -55 5 -65 12 -22 14 -51 4
-51 -17 0 -21 29 -31 51 -17 10 7 46 12 78 12 57 0 61 2 87 35 23 31 32 35 70
35 24 0 44 5 44 10 0 6 -18 10 -40 10 -33 0 -48 -7 -84 -40z m-166 -45 c0 -8
-4 -15 -10 -15 -5 0 -10 7 -10 15 0 8 5 15 10 15 6 0 10 -7 10 -15z"/>
<path d="M1870 1200 c0 -5 20 -10 44 -10 38 0 48 -5 75 -35 28 -32 35 -35 86
-35 30 0 64 -5 74 -12 22 -14 51 -4 51 17 0 21 -29 31 -51 17 -10 -7 -40 -12
-65 -12 -41 0 -52 5 -90 40 -36 33 -51 40 -84 40 -22 0 -40 -4 -40 -10z m310
-75 c0 -8 -4 -15 -10 -15 -5 0 -10 7 -10 15 0 8 5 15 10 15 6 0 10 -7 10 -15z"/>
<path d="M736 1154 c-9 -22 -8 -24 9 -24 8 0 15 6 15 14 0 22 -17 28 -24 10z"/>
<path d="M2391 1134 c0 -11 3 -14 6 -6 3 7 2 16 -1 19 -3 4 -6 -2 -5 -13z"/>
<path d="M868 1123 c-24 -6 -23 -19 2 -26 15 -4 20 0 20 14 0 10 -1 18 -2 18
-2 -1 -11 -3 -20 -6z"/>
<path d="M1810 1110 c0 -13 5 -17 20 -13 11 3 20 9 20 13 0 4 -9 10 -20 13
-15 4 -20 0 -20 -13z"/>
<path d="M705 1080 c-31 -31 -46 -40 -74 -40 -19 0 -43 8 -53 17 -17 15 -20
15 -35 1 -9 -9 -13 -24 -10 -32 7 -18 42 -22 52 -6 3 6 25 10 49 10 35 0 48 6
76 35 25 26 42 35 64 34 21 -1 25 -3 11 -6 -26 -6 -44 -23 -25 -23 25 0 87
-35 96 -54 5 -11 24 -26 42 -33 30 -12 32 -12 32 8 0 41 -33 79 -80 94 -25 7
-39 14 -32 14 6 1 12 6 12 11 0 6 -19 10 -43 10 -37 0 -48 -6 -82 -40z m-135
-45 c0 -8 -4 -15 -10 -15 -5 0 -10 7 -10 15 0 8 5 15 10 15 6 0 10 -7 10 -15z"/>
<path d="M1870 1110 c0 -5 19 -10 43 -10 36 0 49 -6 77 -35 28 -29 41 -35 76
-35 24 0 46 -4 49 -10 10 -16 45 -12 52 6 3 8 -1 23 -10 32 -15 14 -18 14 -35
-1 -10 -9 -34 -17 -53 -17 -28 0 -43 9 -74 40 -34 34 -45 40 -82 40 -24 0 -43
-4 -43 -10z m282 -75 c0 -5 -5 -11 -11 -13 -6 -2 -11 4 -11 13 0 9 5 15 11 13
6 -2 11 -8 11 -13z"/>
<path d="M2363 1077 c-34 -36 -67 -110 -64 -144 1 -18 -6 -44 -15 -58 -9 -14
-14 -28 -11 -31 3 -3 11 4 17 16 9 18 18 21 40 16 27 -5 31 -1 59 56 32 63 40
110 19 106 -7 -2 -13 9 -13 24 -1 38 -8 41 -32 15z"/>
<path d="M1780 1038 c-20 -33 -29 -138 -12 -138 5 0 19 11 32 24 17 20 21 31
15 53 -4 15 -6 43 -6 61 1 17 -1 32 -4 32 -3 0 -14 -15 -25 -32z"/>
<path d="M944 1034 c3 -9 6 -21 6 -27 1 -13 30 22 30 35 0 4 -9 8 -21 8 -15 0
-19 -4 -15 -16z"/>
<path d="M1027 1033 c12 -33 16 -36 30 -18 19 27 16 35 -12 35 -19 0 -23 -4
-18 -17z"/>
<path d="M1117 1033 c12 -33 16 -36 30 -18 19 27 16 35 -12 35 -19 0 -23 -4
-18 -17z"/>
<path d="M1200 1042 c0 -15 27 -45 32 -36 18 33 17 44 -7 44 -14 0 -25 -4 -25
-8z"/>
<path d="M1256 1035 c-3 -8 -1 -15 4 -15 13 0 22 18 11 24 -5 3 -11 -1 -15 -9z"/>
<path d="M1290 1042 c0 -13 29 -48 30 -35 0 6 3 18 6 27 4 12 0 16 -15 16 -12
0 -21 -4 -21 -8z"/>
<path d="M1374 1034 c3 -9 6 -21 6 -27 1 -13 30 22 30 35 0 4 -9 8 -21 8 -15
0 -19 -4 -15 -16z"/>
<path d="M1421 1032 c-16 -29 -14 -46 7 -65 28 -25 34 -21 26 21 -10 57 -19
69 -33 44z"/>
<path d="M1457 1033 c12 -33 16 -36 30 -18 19 27 16 35 -12 35 -19 0 -23 -4
-18 -17z"/>
<path d="M1504 1028 c-4 -13 -8 -63 -9 -113 l-2 -90 39 -42 c32 -36 38 -49 38
-87 0 -25 5 -48 10 -51 17 -11 11 -44 -10 -55 -14 -8 -26 -8 -40 0 -21 11 -27
44 -10 55 6 3 10 25 10 49 0 35 -6 48 -35 76 -29 28 -35 41 -35 74 0 56 -11
71 -39 57 -36 -20 -28 -70 19 -116 39 -38 40 -40 40 -110 0 -39 5 -76 11 -82
29 -29 -14 -89 -48 -67 -21 13 -29 52 -14 67 6 6 11 41 11 77 0 64 -1 67 -35
94 -30 24 -35 34 -35 71 0 29 -6 47 -20 60 -20 18 -20 17 -20 -34 0 -46 -5
-58 -35 -94 -32 -37 -35 -46 -35 -102 0 -33 5 -66 11 -72 29 -29 -14 -89 -48
-67 -21 13 -29 52 -14 67 13 13 14 116 2 136 -5 7 -13 11 -19 7 -17 -10 -25
-65 -12 -81 28 -34 -12 -91 -47 -69 -22 14 -29 50 -13 69 28 34 -6 29 -87 -12
-48 -24 -94 -41 -103 -38 -12 5 -13 4 -2 -6 6 -7 12 -23 12 -35 0 -30 9 -32
126 -27 97 4 102 3 131 -21 21 -18 37 -24 50 -19 16 6 16 5 4 -10 -12 -15 -11
-17 3 -17 10 0 15 -4 11 -9 -3 -5 4 -12 15 -16 11 -3 20 -10 20 -14 0 -4 11
-13 25 -19 27 -12 33 -37 13 -46 -10 -5 -10 -7 0 -12 6 -3 9 -10 6 -16 -5 -7
3 -9 22 -4 16 4 74 11 129 15 75 6 109 13 135 29 22 14 52 22 79 22 30 0 59 9
89 26 24 14 52 24 63 21 10 -3 23 1 30 9 6 8 16 14 22 14 6 0 2 -7 -9 -15 -10
-8 -15 -15 -11 -15 12 0 83 37 98 52 8 7 32 25 54 39 60 39 155 129 155 147 0
21 19 80 36 116 13 26 13 30 -3 42 -27 20 -42 17 -73 -16 -31 -33 -41 -36 -70
-18 -17 11 -24 8 -49 -16 -19 -19 -31 -24 -36 -16 -4 6 -13 9 -21 6 -8 -3 -21
5 -30 19 -17 25 -45 31 -91 19 -29 -8 -31 -53 -4 -78 10 -9 21 -34 25 -54 7
-47 -25 -156 -48 -160 -9 -2 -16 -10 -16 -18 0 -11 -6 -13 -20 -9 -10 3 -33
-1 -50 -10 -16 -8 -30 -13 -30 -10 0 2 16 13 35 22 24 13 32 22 26 32 -7 11
-14 9 -39 -9 -39 -29 -100 -35 -124 -13 -15 13 -18 33 -18 119 0 58 4 106 10
109 6 3 10 25 10 49 0 35 -6 48 -34 75 -30 29 -34 41 -40 101 -8 74 -29 109
-42 68z m601 -268 c3 -5 1 -10 -4 -10 -6 0 -11 5 -11 10 0 6 2 10 4 10 3 0 8
-4 11 -10z m-155 -38 c0 -13 -12 -22 -22 -16 -10 6 -1 24 13 24 5 0 9 -4 9 -8z
m-440 -195 c0 -2 -17 -19 -37 -38 l-38 -34 34 38 c33 34 41 42 41 34z m450
-32 c-7 -8 -20 -15 -29 -15 -13 1 -13 3 3 15 26 19 42 19 26 0z m-340 -65 c-8
-5 -19 -10 -25 -10 -5 0 -3 5 5 10 8 5 20 10 25 10 6 0 3 -5 -5 -10z m130 6
c0 -3 -4 -8 -10 -11 -5 -3 -10 -1 -10 4 0 6 5 11 10 11 6 0 10 -2 10 -4z"/>
<path d="M1540 1042 c0 -15 27 -45 32 -36 18 33 17 44 -7 44 -14 0 -25 -4 -25
-8z"/>
<path d="M1597 1036 c-4 -10 -10 -42 -13 -72 -7 -54 -6 -56 32 -97 l39 -42
-42 39 c-34 31 -43 47 -46 80 l-4 41 -1 -46 c-2 -40 2 -49 33 -79 29 -28 35
-41 35 -76 0 -24 -4 -46 -10 -49 -16 -10 -12 -42 7 -49 23 -9 51 20 35 36 -14
14 -16 42 -2 33 5 -3 19 -1 30 5 32 17 26 61 -15 100 -28 27 -35 42 -35 71 0
21 -5 41 -10 44 -6 4 -8 14 -5 24 3 9 -1 25 -8 35 -13 18 -14 18 -20 2z m53
-326 c0 -5 -7 -10 -15 -10 -8 0 -15 5 -15 10 0 6 7 10 15 10 8 0 15 -4 15 -10z"/>
<path d="M1630 1042 c0 -15 27 -45 32 -36 18 33 17 44 -7 44 -14 0 -25 -4 -25
-8z"/>
<path d="M1686 1035 c-4 -10 -9 -43 -12 -74 -6 -54 -5 -57 29 -90 41 -39 68
-34 41 7 -12 21 -7 17 25 -13 34 -32 41 -46 41 -77 0 -21 -5 -47 -12 -57 -14
-22 -4 -51 17 -51 21 0 31 29 17 51 -7 10 -12 38 -12 62 0 36 -6 49 -35 77
-28 27 -35 42 -35 72 0 37 -13 51 -23 26 -3 -7 -6 1 -6 18 -1 16 -7 38 -14 48
-13 18 -14 18 -21 1z m144 -326 c0 -5 -7 -9 -15 -9 -15 0 -20 12 -9 23 8 8 24
-1 24 -14z"/>
<path d="M1720 1042 c0 -13 29 -48 30 -35 0 6 3 18 6 27 4 12 0 16 -15 16 -12
0 -21 -4 -21 -8z"/>
<path d="M996 1025 c-3 -10 -2 -23 4 -29 15 -15 24 1 13 26 -9 20 -10 20 -17
3z"/>
<path d="M1166 1024 c-4 -10 -9 -44 -13 -76 -5 -47 -12 -64 -34 -86 -54 -50
-24 -95 31 -48 17 14 37 23 45 20 12 -5 15 5 14 57 0 81 -11 141 -25 146 -6 2
-14 -4 -18 -13z"/>
<path d="M1071 987 c-6 -16 -11 -43 -11 -61 0 -21 -8 -40 -21 -52 -33 -29 -42
-53 -28 -70 16 -19 29 -18 29 4 0 10 18 36 40 57 46 45 53 87 21 126 l-19 24
-11 -28z"/>
<path d="M820 972 c14 -9 42 -32 62 -50 40 -36 58 -35 58 4 0 17 -6 24 -19 24
-11 0 -40 9 -66 20 -56 24 -69 25 -35 2z"/>
<path d="M1247 983 c-4 -3 -7 -42 -7 -85 0 -63 3 -78 15 -78 19 0 13 -45 -10
-70 -10 -11 -15 -37 -15 -83 0 -37 -6 -76 -12 -87 -10 -16 -10 -23 5 -37 16
-16 18 -16 34 0 15 14 15 21 5 37 -6 11 -12 50 -12 88 0 65 2 70 35 102 l35
34 -2 90 -2 91 -3 -79 c-3 -48 -10 -87 -18 -100 -8 -11 -15 -16 -15 -10 0 5 5
15 10 20 6 6 10 41 8 79 -2 55 -7 70 -24 81 -11 8 -24 11 -27 7z m3 -418 c0
-8 -4 -15 -9 -15 -13 0 -22 16 -14 24 11 11 23 6 23 -9z"/>
<path d="M950 943 c0 -31 -7 -46 -35 -73 -29 -28 -35 -41 -35 -77 0 -24 -5
-52 -12 -62 -14 -22 -4 -51 17 -51 21 0 31 29 17 51 -7 10 -12 36 -12 57 0 31
7 45 40 77 30 30 40 47 40 71 0 18 -4 36 -10 39 -6 4 -10 -9 -10 -32z m-50
-234 c0 -5 -7 -9 -15 -9 -15 0 -20 12 -9 23 8 8 24 -1 24 -14z"/>
<path d="M1042 944 c-2 -31 -9 -47 -37 -74 -32 -31 -35 -39 -35 -94 0 -42 -5
-65 -17 -78 -15 -17 -15 -20 -1 -35 9 -9 24 -13 32 -10 18 7 22 42 6 52 -5 3
-10 32 -10 63 0 51 3 60 36 93 32 32 35 41 31 80 l-4 44 -1 -41z m-52 -265 c0
-5 -7 -9 -15 -9 -15 0 -20 12 -9 23 8 8 24 -1 24 -14z"/>
<path d="M1132 945 c-2 -33 -10 -48 -42 -80 -35 -34 -40 -45 -40 -85 0 -25 -5
-51 -12 -58 -16 -16 12 -45 35 -36 19 7 23 39 7 49 -5 3 -10 25 -10 48 0 34 6
48 36 78 32 32 35 41 31 80 l-4 44 -1 -40z m-57 -235 c-3 -5 -10 -10 -16 -10
-5 0 -9 5 -9 10 0 6 7 10 16 10 8 0 12 -4 9 -10z"/>
<path d="M1222 900 l-2 -86 -40 -39 c-33 -32 -40 -46 -40 -77 0 -21 -6 -47
-12 -58 -10 -16 -10 -23 5 -37 16 -16 18 -16 34 0 15 14 15 21 5 37 -6 11 -12
36 -12 57 0 29 8 45 35 73 l36 37 -4 89 -3 89 -2 -85z m-62 -280 c0 -5 -4 -10
-10 -10 -5 0 -10 5 -10 10 0 6 5 10 10 10 6 0 10 -4 10 -10z"/>
<path d="M1382 894 l-2 -90 35 -34 c33 -32 35 -37 35 -102 0 -38 -6 -77 -12
-88 -10 -16 -10 -23 5 -37 16 -16 18 -16 34 0 15 14 15 21 5 37 -6 11 -12 50
-12 87 0 65 -2 70 -40 112 -38 42 -39 46 -43 125 l-3 81 -2 -91z m90 -329 c0
-5 -5 -11 -11 -13 -6 -2 -11 4 -11 13 0 9 5 15 11 13 6 -2 11 -8 11 -13z"/>
<path d="M1472 894 l-2 -90 35 -34 c28 -27 35 -42 35 -72 0 -21 -6 -47 -12
-58 -10 -16 -10 -23 5 -37 16 -16 18 -16 34 0 15 14 15 21 5 37 -6 11 -12 37
-12 58 0 31 -7 45 -40 77 -39 38 -39 39 -43 124 l-3 86 -2 -91z m88 -274 c0
-5 -4 -10 -10 -10 -5 0 -10 5 -10 10 0 6 5 10 10 10 6 0 10 -4 10 -10z"/>
<path d="M1652 939 c-2 -40 2 -49 33 -79 32 -31 35 -39 35 -91 0 -32 -4 -61
-10 -64 -16 -10 -12 -45 6 -52 8 -3 23 1 32 10 14 15 14 18 -1 35 -12 13 -17
36 -17 78 0 55 -3 63 -34 94 -26 25 -36 43 -39 74 l-4 41 -1 -46z m88 -260 c0
-5 -7 -9 -15 -9 -15 0 -20 12 -9 23 8 8 24 -1 24 -14z"/>
<path d="M980 938 c0 -18 -7 -42 -15 -52 -33 -44 -2 -50 38 -8 18 19 27 39 27
60 0 27 -4 32 -25 32 -21 0 -25 -5 -25 -32z"/>
<path d="M480 828 c0 -10 3 -18 8 -18 4 0 8 -27 8 -60 0 -33 -3 -60 -8 -60
-16 0 2 -18 33 -34 28 -14 31 -14 50 5 19 19 19 22 5 44 -9 14 -16 35 -16 48
0 24 -27 57 -48 57 -6 0 -16 8 -21 18 -10 16 -10 16 -11 0z"/>
<path d="M690 540 c0 -15 71 -80 124 -113 l49 -31 -92 -22 c-101 -25 -154 -51
-159 -78 -6 -27 15 -43 82 -66 319 -106 1195 -88 1374 28 58 38 -10 89 -156
120 l-80 16 -103 -32 c-145 -45 -276 -65 -374 -59 -270 18 -380 43 -456 100
-24 19 -51 32 -59 30 -13 -4 -13 -3 0 6 21 15 5 38 -54 79 -46 31 -96 43 -96
22z"/>
<path d="M1138 523 c6 -2 18 -2 25 0 6 3 1 5 -13 5 -14 0 -19 -2 -12 -5z"/>
<path d="M1305 330 c3 -5 11 -10 16 -10 6 0 7 5 4 10 -3 6 -11 10 -16 10 -6 0
-7 -4 -4 -10z"/>
</g>
</svg>
