<?xml version="1.0" standalone="no"?>
<!DOCTYPE svg PUBLIC "-//W3C//DTD SVG 20010904//EN"
 "http://www.w3.org/TR/2001/REC-SVG-20010904/DTD/svg10.dtd">
<svg version="1.0" xmlns="http://www.w3.org/2000/svg"
 width="686.000000pt" height="742.000000pt" viewBox="0 0 686.000000 742.000000"
 preserveAspectRatio="xMidYMid meet">
<metadata>
Created by potrace 1.16, written by Peter Selinger 2001-2019
</metadata>
<g transform="translate(0.000000,742.000000) scale(0.100000,-0.100000)"
fill="#000000" stroke="none">
<path d="M5671 7330 c422 -41 768 -360 840 -778 15 -85 5 -318 -16 -396 -40
-146 -138 -316 -242 -420 -135 -136 -325 -236 -504 -266 -43 -7 -805 -10
-2384 -10 -1575 0 -2347 -3 -2405 -10 -209 -27 -380 -110 -527 -257 -231 -231
-314 -565 -218 -878 14 -44 30 -87 36 -95 13 -18 14 -24 -27 101 -26 79 -28
94 -28 254 0 165 1 173 32 265 101 301 346 521 652 586 54 11 455 14 2425 14
l2360 0 107 24 c204 47 343 122 483 261 132 133 212 276 257 463 26 109 28
292 4 399 -65 299 -268 549 -546 676 -91 41 -240 77 -314 76 l-61 -2 76 -7z"/>
<path d="M276 4168 c61 -119 184 -256 289 -324 85 -54 191 -101 287 -126 l83
-22 2445 -6 2445 -5 70 -24 c164 -55 257 -110 366 -217 168 -163 247 -343 256
-584 7 -202 -33 -354 -136 -510 -113 -172 -280 -296 -486 -362 l-70 -23 -2385
-5 -2385 -5 -98 -27 c-479 -132 -755 -605 -632 -1084 22 -83 94 -227 153 -305
143 -188 356 -308 606 -339 52 -6 777 -10 2026 -10 l1946 0 2 -26 c7 -82 94
-158 182 -158 161 0 243 197 131 314 -66 69 -196 69 -262 0 -22 -22 -49 -75
-49 -95 0 -13 -200 -15 -1995 -15 -2222 0 -2064 -5 -2236 69 -257 111 -449
348 -505 622 -22 110 -15 313 15 414 84 282 293 496 581 592 l85 28 2385 6
c1312 3 2399 9 2415 13 244 64 401 156 529 312 64 77 149 242 171 328 74 297
7 581 -195 818 -78 92 -215 185 -353 239 -142 57 32 53 -2622 59 l-2440 5 -70
21 c-217 65 -406 210 -515 392 -44 74 -63 97 -34 40z m5055 -3831 c55 -37 79
-81 79 -147 0 -102 -68 -170 -170 -170 -102 0 -170 68 -170 170 0 66 24 110
79 147 47 32 135 32 182 0z"/>
<path d="M5206 310 c-65 -20 -103 -86 -86 -149 18 -68 86 -109 153 -90 65 18
104 87 86 153 -10 35 -59 86 -84 86 -7 0 -19 2 -27 4 -7 2 -26 0 -42 -4z m87
-21 c36 -19 57 -52 57 -92 0 -74 -40 -117 -110 -117 -70 0 -110 43 -110 117 0
21 6 45 13 53 36 46 102 63 150 39z"/>
</g>
</svg>
