<?xml version="1.0" standalone="no"?>
<!DOCTYPE svg PUBLIC "-//W3C//DTD SVG 20010904//EN"
 "http://www.w3.org/TR/2001/REC-SVG-20010904/DTD/svg10.dtd">
<svg version="1.0" xmlns="http://www.w3.org/2000/svg"
 width="390.000000pt" height="323.000000pt" viewBox="0 0 390.000000 323.000000"
 preserveAspectRatio="xMidYMid meet">
<metadata>
Created by potrace 1.16, written by Peter Selinger 2001-2019
</metadata>
<g transform="translate(0.000000,323.000000) scale(0.100000,-0.100000)"
fill="#000000" stroke="none">
<path d="M710 2063 c0 -4 -23 -21 -50 -36 -28 -16 -50 -30 -50 -33 0 -9 21
-46 55 -99 18 -27 74 -115 125 -195 90 -141 91 -145 76 -171 -49 -83 -18 -207
62 -248 12 -6 22 -19 22 -29 0 -13 2 -14 8 -4 9 13 42 6 42 -9 0 -5 7 -9 16
-9 8 0 13 4 10 9 -6 9 64 27 92 24 6 0 12 4 12 10 0 6 11 21 23 32 13 11 32
41 42 67 41 110 -28 229 -144 247 -39 7 -28 -7 -215 278 -100 151 -126 186
-126 166z"/>
<path d="M1883 1912 c-51 -28 -93 -95 -93 -151 0 -30 -16 -48 -65 -75 -16 -9
-43 -25 -60 -36 -16 -11 -39 -24 -50 -30 -11 -6 -44 -25 -74 -44 l-54 -33 -34
-109 c-37 -119 -36 -114 -47 -164 -8 -34 -36 -84 -36 -65 0 6 -10 -5 -21 -22
-20 -32 -63 -47 -57 -20 2 6 -2 12 -7 12 -6 0 -9 -7 -8 -16 2 -13 -33 -39 -52
-39 -15 0 -2 20 13 21 9 0 12 3 5 5 -6 3 -35 -5 -63 -17 -28 -12 -54 -19 -58
-15 -9 10 20 27 36 21 6 -2 12 -1 12 4 0 5 9 11 20 14 11 3 20 11 19 19 0 10
-2 10 -6 1 -8 -21 -60 -15 -82 9 -17 17 -23 19 -35 9 -19 -16 -9 -41 16 -41
10 0 17 -4 14 -8 -3 -5 -39 -9 -81 -10 -56 -1 -75 2 -72 11 2 7 9 11 15 10 16
-4 62 15 62 25 0 9 -147 7 -179 -3 -12 -3 -19 -11 -16 -16 4 -5 -52 -9 -139
-9 -139 0 -146 -1 -146 -20 0 -17 -7 -20 -40 -20 -41 0 -45 6 -41 53 2 18 -7
20 -110 17 -49 -1 -57 1 -67 22 -10 22 -11 22 -11 2 -1 -12 6 -27 14 -34 8 -7
15 -21 15 -31 0 -10 4 -21 10 -24 5 -3 18 -25 29 -48 11 -23 33 -64 50 -92 42
-71 50 -84 126 -230 37 -71 75 -139 84 -150 18 -21 101 -153 101 -160 0 -3 23
-43 50 -90 28 -47 64 -117 79 -155 16 -38 43 -84 61 -102 l33 -33 701 -3 c631
-2 705 -1 737 14 31 13 46 33 92 117 30 56 71 140 92 187 22 50 54 101 76 124
21 22 44 56 50 75 11 33 75 144 151 261 16 25 47 83 70 130 22 47 46 98 54
113 8 16 14 40 14 53 0 13 5 24 10 24 6 0 10 7 10 16 0 13 -3 14 -14 5 -10 -8
-16 -9 -21 -1 -8 13 -45 13 -45 0 0 -6 -23 -7 -60 -3 -43 4 -60 2 -60 -6 0 -8
-43 -11 -156 -10 -113 0 -159 -3 -164 -11 -5 -8 -13 -9 -21 -4 -24 15 -39 13
-49 -7 -10 -18 -12 -18 -35 -3 -15 10 -22 22 -18 32 4 13 3 14 -5 4 -7 -11
-12 -11 -25 2 -14 15 -17 15 -26 -1 -8 -15 -10 -11 -11 21 0 35 -2 37 -17 25
-15 -13 -16 -12 -11 9 5 16 1 25 -14 33 -12 7 -17 16 -13 27 3 9 3 13 -1 10
-3 -4 -21 4 -38 17 -45 34 -117 52 -151 37 -14 -7 -34 -12 -43 -12 -20 0 -106
-82 -108 -102 -1 -23 -37 -98 -46 -98 -5 0 -7 13 -3 29 6 29 6 29 -19 18 -14
-7 -26 -15 -26 -19 0 -16 -19 -7 -25 12 -7 21 -55 29 -55 10 0 -5 -15 -10 -33
-10 -18 0 -39 -6 -45 -12 -10 -10 -15 -10 -22 2 -7 11 -10 11 -10 2 0 -7 -4
-11 -9 -8 -5 4 -7 -3 -4 -14 4 -13 0 -20 -10 -20 -15 0 -27 29 -27 65 0 17 2
18 11 5 8 -11 9 -5 4 25 -3 25 -2 35 3 27 6 -9 9 3 9 35 -1 68 26 153 56 178
14 11 71 49 127 84 91 57 104 62 126 52 44 -20 123 -14 169 14 72 42 104 140
70 216 -20 46 -34 63 -75 88 -44 26 -131 28 -177 3z"/>
</g>
</svg>
