<?xml version="1.0" standalone="no"?>
<!DOCTYPE svg PUBLIC "-//W3C//DTD SVG 20010904//EN"
 "http://www.w3.org/TR/2001/REC-SVG-20010904/DTD/svg10.dtd">
<svg version="1.0" xmlns="http://www.w3.org/2000/svg"
 width="1166.000000pt" height="1280.000000pt" viewBox="0 0 1166.000000 1280.000000"
 preserveAspectRatio="xMidYMid meet">
<metadata>
Created by potrace 1.15, written by Peter Selinger 2001-2017
</metadata>
<g transform="translate(0.000000,1280.000000) scale(0.100000,-0.100000)"
fill="#000000" stroke="none">
<path d="M2568 12771 c-187 -73 -316 -237 -381 -481 -40 -151 -48 -252 -37
-510 18 -401 34 -570 71 -715 6 -22 13 -51 15 -65 10 -45 95 -313 131 -410 49
-130 169 -370 239 -477 138 -210 193 -275 499 -583 14 -14 25 -32 25 -40 0 -8
15 -33 33 -55 53 -67 265 -274 377 -370 197 -169 277 -247 423 -415 50 -58
116 -131 146 -162 202 -207 201 -225 -17 -214 -75 4 -155 12 -177 17 -68 19
-190 -5 -370 -72 -16 -6 -93 -19 -170 -30 -198 -26 -218 -29 -240 -38 -43 -18
-146 -31 -244 -31 -96 0 -107 2 -174 34 -74 36 -237 85 -342 105 -161 29 -642
54 -790 41 -347 -32 -511 -89 -755 -261 -36 -25 -99 -70 -142 -100 -120 -85
-270 -200 -309 -239 -20 -19 -58 -55 -84 -80 -112 -105 -174 -213 -206 -357
-27 -117 -59 -356 -59 -433 0 -140 56 -256 185 -385 121 -122 212 -187 383
-275 50 -26 62 -37 60 -53 -2 -15 -15 -24 -48 -32 -97 -25 -170 -78 -294 -213
-240 -263 -306 -437 -306 -806 0 -131 3 -161 24 -228 64 -207 236 -409 497
-580 71 -47 211 -109 261 -116 21 -2 41 -9 44 -13 3 -5 18 -9 34 -9 75 0 107
-45 52 -74 -107 -55 -248 -205 -303 -321 -68 -145 -74 -174 -73 -375 1 -250
21 -335 113 -489 119 -200 353 -399 661 -563 47 -25 115 -62 151 -82 81 -44
245 -104 314 -114 70 -10 73 -37 12 -101 -125 -129 -209 -336 -194 -480 14
-130 94 -341 160 -421 12 -14 33 -42 47 -60 43 -59 125 -126 210 -173 33 -18
87 -65 135 -116 226 -243 254 -265 488 -389 26 -13 47 -28 47 -32 0 -17 110
-33 167 -24 106 15 157 10 220 -23 70 -37 155 -57 209 -50 147 21 140 21 166
-8 59 -71 174 -155 210 -155 10 0 18 -4 18 -8 0 -4 24 -17 53 -28 43 -16 78
-19 202 -19 143 0 154 1 220 29 39 16 79 36 90 45 11 9 31 22 45 30 14 8 57
34 97 59 44 27 83 44 100 43 91 -3 482 -32 618 -45 188 -19 397 -20 678 -5
201 11 497 47 550 68 16 6 40 11 53 11 23 0 153 27 244 50 19 5 85 21 145 35
158 37 162 38 360 101 99 31 194 60 210 65 67 19 388 127 455 153 19 8 71 22
115 31 88 19 144 32 190 45 17 4 62 11 100 15 39 4 129 16 200 27 72 11 177
26 235 33 58 7 157 20 220 28 129 18 242 31 405 47 61 6 148 16 195 22 133 17
769 22 1023 8 250 -14 252 -15 397 -29 250 -26 458 -50 733 -86 l37 -5 0 2483
0 2484 -182 6 c-99 4 -404 7 -677 7 -501 0 -511 1 -707 39 -84 16 -342 89
-374 106 -17 9 -30 13 -30 11 0 -5 -44 14 -174 73 -89 41 -266 152 -333 208
-77 65 -205 192 -238 238 -16 22 -44 58 -62 79 -18 22 -33 45 -33 51 0 6 -14
24 -31 41 -17 16 -76 88 -132 159 -56 72 -122 153 -147 181 -117 132 -305 357
-374 450 -17 23 -82 104 -144 180 -62 77 -136 168 -165 204 -28 35 -75 91
-103 125 -27 33 -88 110 -133 170 -46 61 -98 126 -115 146 -107 124 -204 258
-392 539 -165 246 -211 305 -340 432 -192 188 -225 208 -705 442 -108 53 -234
125 -330 188 -152 102 -173 116 -327 230 -73 54 -99 74 -198 151 -23 18 -57
41 -75 52 -18 11 -41 25 -52 31 -10 6 -30 23 -45 37 -15 15 -42 31 -59 38 -18
6 -35 18 -38 27 -5 16 -46 51 -142 125 -23 17 -48 27 -69 27 -31 0 -34 3 -34
30 0 45 -22 81 -73 118 -25 17 -47 32 -49 32 -3 0 -26 20 -52 45 -29 29 -62
49 -90 57 -39 10 -44 15 -60 62 -12 32 -34 67 -62 93 -48 47 -202 152 -250
172 -17 7 -121 103 -232 214 -224 226 -278 277 -292 277 -6 0 -10 8 -10 19 0
10 -20 36 -45 57 -25 22 -45 43 -45 48 0 10 -147 304 -228 456 -89 167 -296
496 -317 504 -7 2 -22 2 -34 -1 -14 -4 -32 5 -56 26 -33 29 -41 31 -108 31
-45 -1 -89 -8 -119 -19z"/>
</g>
</svg>
