<?xml version="1.0" encoding="iso-8859-1"?>
<!-- Generator: Adobe Illustrator 16.0.0, SVG Export Plug-In . SVG Version: 6.00 Build 0)  -->
<!DOCTYPE svg PUBLIC "-//W3C//DTD SVG 1.1//EN" "http://www.w3.org/Graphics/SVG/1.1/DTD/svg11.dtd">
<svg version="1.1" id="Capa_1" xmlns="http://www.w3.org/2000/svg" xmlns:xlink="http://www.w3.org/1999/xlink" x="0px" y="0px"
	 width="593.909px" height="593.909px" viewBox="0 0 593.909 593.909" style="enable-background:new 0 0 593.909 593.909;"
	 xml:space="preserve">
<g>
	<g>
		<path d="M593.839,203.89l-0.025-0.053c0.03,0.007,0.062,0.015,0.096,0.019C593.887,203.87,593.859,203.876,593.839,203.89z"/>
		<path d="M584.516,188.46c-0.003-0.001-0.005-0.001-0.006-0.001c0.001-0.016,0.006-0.032,0.006-0.047V188.46z"/>
	</g>
	<path d="M0,357.421c0-22.354,4.844-39.838,26.086-40.955c-9.443-0.916-15.547-15.826-14.416-37.359
		c1.113-21.524,9.762-40.27,31.287-39.148l87.254-0.09c-0.227-2.533-36.807-69.609-77.5-133.599
		c-10.475-18.842-3.688-42.597,15.156-53.067c18.842-10.461,42.592-3.677,53.066,15.165c0,0,25.904,37.938,50.566,57.049
		c68.898,53.373,219.687,124.05,227.258,156.212H520.22c27.475,0,49.791,26.542,50.704,53.993
		c0.21,1.833,0.364,125.724,0.364,125.724c0,30.078-24.379,48.241-54.463,48.241h-119.07c-0.631,13.981-20.903,37.636-69.062,35.948
		l-254.029,0.072c-23.104,0-34.262-7.131-36.59-26.264c-2.379-19.601-1.449-34.44,14.855-35.873l-13.695,0.132
		c-23.102,0-28.441-18.722-28.441-41.833c0-22.725,5.209-40.604,22.748-41.744H28.23C5.119,400.026,0,380.523,0,357.421z"/>
</g>
</svg>
