<?xml version="1.0" encoding="iso-8859-1"?>
<!-- Generator: Adobe Illustrator 18.1.1, SVG Export Plug-In . SVG Version: 6.00 Build 0)  -->
<svg version="1.1" id="Capa_1" xmlns="http://www.w3.org/2000/svg" xmlns:xlink="http://www.w3.org/1999/xlink" x="0px" y="0px"
	 viewBox="0 0 50.364 50.364" style="enable-background:new 0 0 50.364 50.364;" xml:space="preserve">
<g>
	<g>
		<path style="fill:#010002;" d="M45.344,6.601H5.018C2.251,6.601,0,8.835,0,11.581v23.222c0,2.745,2.251,4.979,5.018,4.979
			l9.709,0.957c-0.556,0.15-0.961,0.751-0.961,1.493c0,0.858,0.542,1.531,1.233,1.531h20.367c0.691,0,1.233-0.673,1.233-1.531
			c0-0.73-0.395-1.323-0.938-1.484l9.683-0.966c2.768,0,5.02-2.234,5.02-4.979V11.581C50.364,8.835,48.112,6.601,45.344,6.601z
			 M35.366,42.764H14.999c-0.058,0-0.233-0.188-0.233-0.531s0.175-0.531,0.233-0.531h20.367c0.058,0,0.233,0.188,0.233,0.531
			S35.423,42.764,35.366,42.764z M48.286,34.803c0,1.601-1.319,2.902-2.941,2.902H5.018c-1.622,0-2.941-1.303-2.941-2.902V11.581
			c0-1.601,1.319-2.903,2.941-2.903h40.326c1.622,0,2.941,1.303,2.941,2.903L48.286,34.803L48.286,34.803z"/>
		<path style="fill:#010002;" d="M45.041,10.773H5.323c-0.297,0-0.537,0.24-0.537,0.537v19.752c0,0.297,0.24,0.539,0.537,0.539
			h39.718c0.297,0,0.537-0.242,0.539-0.539V11.31C45.58,11.013,45.339,10.773,45.041,10.773z M44.505,29.525c0,0.554-0.447,1-1,1
			H6.86c-0.553,0-1-0.446-1-0.998V12.848c0-0.553,0.447-1,1-1h36.645c0.553,0,1,0.447,1,1V29.525z"/>
		<path style="fill:#010002;" d="M25.182,33.357c-0.915,0-1.658,0.744-1.658,1.658s0.744,1.657,1.658,1.657s1.658-0.743,1.658-1.657
			S26.096,33.357,25.182,33.357z M25.182,35.923c-0.501,0-0.908-0.407-0.908-0.907c0-0.501,0.407-0.908,0.908-0.908
			c0.501,0,0.908,0.407,0.908,0.908C26.09,35.516,25.683,35.923,25.182,35.923z"/>
	</g>
</g>
<g>
</g>
<g>
</g>
<g>
</g>
<g>
</g>
<g>
</g>
<g>
</g>
<g>
</g>
<g>
</g>
<g>
</g>
<g>
</g>
<g>
</g>
<g>
</g>
<g>
</g>
<g>
</g>
<g>
</g>
</svg>
